<svg width="199" height="65" viewBox="0 0 199 65" fill="none" xmlns="http://www.w3.org/2000/svg">
<path d="M15.6 63.2C15.6 63.2 0 61.6 0 40.4C0 24 12.4 14.4 12.4 14.4C12.4 14.4 17.6 20 21.6 22C25.6 24.4 27.2 0 27.2 0C27.2 0 56 15.6 56 39.2C56 63.6 40 62.8 40 62.8C40 62.8 47.2 53.2 47.2 42C47.2 30 31.6 15.2 31.6 15.2C31.6 15.2 29.6 32.8 23.2 35.2C16.8 31.6 13.2 26 13.2 26C13.2 26 -1.6 49.2 15.6 63.2Z" fill="#DE2A2A"/>
<path d="M15.6 63.2C15.6 63.2 0 61.6 0 40.4C0 24 12.4 14.4 12.4 14.4C12.4 14.4 17.6 20 21.6 22C25.6 24.4 27.2 0 27.2 0C27.2 0 56 15.6 56 39.2C56 63.6 40 62.8 40 62.8C40 62.8 47.2 53.2 47.2 42C47.2 30 31.6 15.2 31.6 15.2C31.6 15.2 29.6 32.8 23.2 35.2C16.8 31.6 13.2 26 13.2 26C13.2 26 -1.6 49.2 15.6 63.2Z" fill="#EE8217" fill-opacity="0.2"/>
<path d="M28.8 64.4C20.8 64 14 58.8 14 51.6C14 44.4 16.8 41.2 16.8 41.2C16.8 41.2 18.8 45.2 21.2 47.2C23.6 49.2 28.4 50.4 30.8 47.6C33.2 45.2 34 38.4 34 38.4C34 38.4 39.6 42.8 38.8 50.4C38.4 58.4 35.2 64.4 28.8 64.4Z" fill="#DE320D"/>
<path d="M74.088 30.08V33.824H69.576V47H64.872V33.824H60.408V30.08H74.088Z" fill="#DE2A2A"/>
<path d="M78.2044 32.288C77.3724 32.288 76.7004 32.064 76.1884 31.616C75.6924 31.152 75.4444 30.576 75.4444 29.888C75.4444 29.184 75.6924 28.6 76.1884 28.136C76.7004 27.672 77.3724 27.44 78.2044 27.44C79.0204 27.44 79.6764 27.672 80.1724 28.136C80.6844 28.6 80.9404 29.184 80.9404 29.888C80.9404 30.576 80.6844 31.152 80.1724 31.616C79.6764 32.064 79.0204 32.288 78.2044 32.288ZM80.5324 33.536V47H75.8284V33.536H80.5324Z" fill="#DE2A2A"/>
<path d="M92.0192 33.416C93.5712 33.416 94.8032 33.936 95.7152 34.976C96.6272 36 97.0832 37.392 97.0832 39.152V47H92.3792V39.776C92.3792 39.008 92.1792 38.408 91.7792 37.976C91.3792 37.528 90.8432 37.304 90.1712 37.304C89.4672 37.304 88.9152 37.528 88.5152 37.976C88.1152 38.408 87.9152 39.008 87.9152 39.776V47H83.2112V33.536H87.9152V35.456C88.3312 34.848 88.8912 34.36 89.5952 33.992C90.2992 33.608 91.1072 33.416 92.0192 33.416Z" fill="#DE2A2A"/>
<path d="M98.8963 40.256C98.8963 38.864 99.1443 37.648 99.6403 36.608C100.152 35.568 100.848 34.768 101.728 34.208C102.608 33.648 103.584 33.368 104.656 33.368C105.52 33.368 106.288 33.552 106.96 33.92C107.648 34.272 108.184 34.76 108.568 35.384V29.24H113.296V47H108.568V45.128C108.2 45.752 107.68 46.248 107.008 46.616C106.336 46.984 105.544 47.168 104.632 47.168C103.56 47.168 102.584 46.888 101.704 46.328C100.84 45.768 100.152 44.968 99.6403 43.928C99.1443 42.872 98.8963 41.648 98.8963 40.256ZM108.592 40.256C108.592 39.392 108.352 38.712 107.872 38.216C107.408 37.72 106.832 37.472 106.144 37.472C105.44 37.472 104.856 37.72 104.392 38.216C103.928 38.696 103.696 39.376 103.696 40.256C103.696 41.12 103.928 41.808 104.392 42.32C104.856 42.816 105.44 43.064 106.144 43.064C106.832 43.064 107.408 42.816 107.872 42.32C108.352 41.824 108.592 41.136 108.592 40.256Z" fill="#DE2A2A"/>
<path d="M128.841 40.112C128.841 40.48 128.817 40.848 128.769 41.216H119.865C119.913 41.952 120.113 42.504 120.465 42.872C120.833 43.224 121.297 43.4 121.857 43.4C122.641 43.4 123.201 43.048 123.537 42.344H128.553C128.345 43.272 127.937 44.104 127.329 44.84C126.737 45.56 125.985 46.128 125.073 46.544C124.161 46.96 123.153 47.168 122.049 47.168C120.721 47.168 119.537 46.888 118.497 46.328C117.473 45.768 116.665 44.968 116.073 43.928C115.497 42.888 115.209 41.664 115.209 40.256C115.209 38.848 115.497 37.632 116.073 36.608C116.649 35.568 117.449 34.768 118.473 34.208C119.513 33.648 120.705 33.368 122.049 33.368C123.377 33.368 124.553 33.64 125.577 34.184C126.601 34.728 127.401 35.512 127.977 36.536C128.553 37.544 128.841 38.736 128.841 40.112ZM124.041 38.936C124.041 38.36 123.849 37.912 123.465 37.592C123.081 37.256 122.601 37.088 122.025 37.088C121.449 37.088 120.977 37.248 120.609 37.568C120.241 37.872 120.001 38.328 119.889 38.936H124.041Z" fill="#DE2A2A"/>
<path d="M135.47 35.912C135.998 35.144 136.638 34.536 137.39 34.088C138.142 33.64 138.95 33.416 139.814 33.416V38.432H138.494C137.47 38.432 136.71 38.632 136.214 39.032C135.718 39.432 135.47 40.128 135.47 41.12V47H130.766V33.536H135.47V35.912Z" fill="#DE2A2A"/>
<path d="M152.708 30.08V41.288C152.708 43.192 152.188 44.648 151.148 45.656C150.124 46.664 148.708 47.168 146.9 47.168C144.98 47.168 143.444 46.632 142.292 45.56C141.156 44.488 140.588 42.944 140.588 40.928H145.244C145.26 42.256 145.748 42.92 146.708 42.92C147.572 42.92 148.004 42.376 148.004 41.288V30.08H152.708Z" fill="#DE2A2A"/>
<path d="M161.78 47.168C160.436 47.168 159.228 46.888 158.156 46.328C157.1 45.768 156.268 44.968 155.66 43.928C155.052 42.888 154.748 41.664 154.748 40.256C154.748 38.864 155.052 37.648 155.66 36.608C156.284 35.568 157.124 34.768 158.18 34.208C159.252 33.648 160.46 33.368 161.804 33.368C163.148 33.368 164.348 33.648 165.404 34.208C166.476 34.768 167.316 35.568 167.924 36.608C168.548 37.648 168.86 38.864 168.86 40.256C168.86 41.648 168.548 42.872 167.924 43.928C167.316 44.968 166.476 45.768 165.404 46.328C164.332 46.888 163.124 47.168 161.78 47.168ZM161.78 43.088C162.436 43.088 162.98 42.848 163.412 42.368C163.86 41.872 164.084 41.168 164.084 40.256C164.084 39.344 163.86 38.648 163.412 38.168C162.98 37.688 162.444 37.448 161.804 37.448C161.164 37.448 160.628 37.688 160.196 38.168C159.764 38.648 159.548 39.344 159.548 40.256C159.548 41.184 159.756 41.888 160.172 42.368C160.588 42.848 161.124 43.088 161.78 43.088Z" fill="#DE2A2A"/>
<path d="M175.478 35.408C175.846 34.768 176.366 34.272 177.038 33.92C177.71 33.552 178.502 33.368 179.414 33.368C180.486 33.368 181.454 33.648 182.318 34.208C183.198 34.768 183.886 35.568 184.382 36.608C184.894 37.648 185.15 38.864 185.15 40.256C185.15 41.648 184.894 42.872 184.382 43.928C183.886 44.968 183.198 45.768 182.318 46.328C181.454 46.888 180.486 47.168 179.414 47.168C178.502 47.168 177.71 46.992 177.038 46.64C176.366 46.272 175.846 45.768 175.478 45.128V47H170.774V29.24H175.478V35.408ZM180.374 40.256C180.374 39.376 180.134 38.696 179.654 38.216C179.19 37.72 178.614 37.472 177.926 37.472C177.238 37.472 176.654 37.72 176.174 38.216C175.71 38.712 175.478 39.392 175.478 40.256C175.478 41.136 175.71 41.824 176.174 42.32C176.654 42.816 177.238 43.064 177.926 43.064C178.614 43.064 179.19 42.816 179.654 42.32C180.134 41.808 180.374 41.12 180.374 40.256Z" fill="#DE2A2A"/>
<path d="M192.822 47.168C191.606 47.168 190.518 46.968 189.558 46.568C188.614 46.152 187.862 45.592 187.302 44.888C186.758 44.168 186.454 43.36 186.39 42.464H190.95C191.014 42.896 191.214 43.232 191.55 43.472C191.886 43.712 192.302 43.832 192.798 43.832C193.182 43.832 193.486 43.752 193.71 43.592C193.934 43.432 194.046 43.224 194.046 42.968C194.046 42.632 193.862 42.384 193.494 42.224C193.126 42.064 192.518 41.888 191.67 41.696C190.71 41.504 189.91 41.288 189.27 41.048C188.63 40.808 188.07 40.416 187.59 39.872C187.126 39.328 186.894 38.592 186.894 37.664C186.894 36.864 187.11 36.144 187.542 35.504C187.974 34.848 188.606 34.328 189.438 33.944C190.286 33.56 191.302 33.368 192.486 33.368C194.246 33.368 195.63 33.8 196.638 34.664C197.646 35.528 198.23 36.664 198.39 38.072H194.142C194.062 37.64 193.87 37.312 193.566 37.088C193.278 36.848 192.886 36.728 192.39 36.728C192.006 36.728 191.71 36.8 191.502 36.944C191.31 37.088 191.214 37.288 191.214 37.544C191.214 37.864 191.398 38.112 191.766 38.288C192.134 38.448 192.726 38.616 193.542 38.792C194.518 39 195.326 39.232 195.966 39.488C196.622 39.744 197.19 40.16 197.67 40.736C198.166 41.296 198.414 42.064 198.414 43.04C198.414 43.824 198.182 44.528 197.718 45.152C197.27 45.776 196.622 46.272 195.774 46.64C194.942 46.992 193.958 47.168 192.822 47.168Z" fill="#DE2A2A"/>
</svg>
