<svg width="19" height="22" viewBox="0 0 19 22" fill="none" xmlns="http://www.w3.org/2000/svg">
<path d="M16.2115 8.99926H17.2213C17.4891 8.99926 17.7459 9.10564 17.9352 9.295C18.1246 9.48436 18.231 9.74119 18.231 10.009V20.1062C18.231 20.374 18.1246 20.6309 17.9352 20.8202C17.7459 21.0096 17.4891 21.116 17.2213 21.116H1.06563C0.797838 21.116 0.541011 21.0096 0.35165 20.8202C0.16229 20.6309 0.0559082 20.374 0.0559082 20.1062L0.0559082 10.009C0.0559082 9.74119 0.16229 9.48436 0.35165 9.295C0.541011 9.10564 0.797838 8.99926 1.06563 8.99926H2.07536V7.98953C2.07536 7.06134 2.25818 6.14223 2.61339 5.28469C2.96859 4.42715 3.48922 3.64797 4.14555 2.99164C4.80189 2.33531 5.58107 1.81468 6.43861 1.45947C7.29615 1.10427 8.21525 0.921448 9.14345 0.921448C10.0716 0.921448 10.9907 1.10427 11.8483 1.45947C12.7058 1.81468 13.485 2.33531 14.1413 2.99164C14.7977 3.64797 15.3183 4.42715 15.6735 5.28469C16.0287 6.14223 16.2115 7.06134 16.2115 7.98953V8.99926ZM2.07536 11.0187L2.07536 19.0965H16.2115V11.0187L2.07536 11.0187ZM8.13372 13.0382H10.1532L10.1532 17.0771H8.13372L8.13372 13.0382ZM14.1921 8.99926V7.98953C14.1921 6.65055 13.6602 5.36641 12.7134 4.41961C11.7666 3.47281 10.4824 2.9409 9.14345 2.9409C7.80446 2.9409 6.52033 3.47281 5.57352 4.41961C4.62672 5.36641 4.09481 6.65055 4.09481 7.98953L4.09481 8.99926H14.1921Z" fill="white"/>
</svg>
